<?xml version="1.0" encoding="UTF-8"?>
<svg id="Layer_1" xmlns="http://www.w3.org/2000/svg" viewBox="0 0 1200 1200">
  <defs>
    <style>
      .cls-1 {
        fill: #fff;
      }

      .cls-2 {
        fill: #542fb3;
      }

      .cls-3 {
        fill: #2f4cb3;
      }
    </style>
  </defs>
  <path class="cls-3" d="M556.86,876.73c-4.57,0-6.84,2.73-6.84,8.21s2.27,8.22,6.84,8.22h81.47c2.04-4.1,4.85-9.8,8.11-16.43h-89.57Z"/>
  <path class="cls-2" d="M876.72,375.15c-2.78,6.68-5.78,13.86-8.9,21.35l-72.82,161.55c-5.75,30.19-5.51,50.31,4.55,64.21,10.06,13.9,34.5,20.37,62.05,22.28,27.55,1.92,102.56.1,102.56.1,3.04.2,6.11.4,9.23.6,2.77.18,5.59.36,8.41.55l-105.08-270.64Z"/>
  <path class="cls-3" d="M810.31,204.09c-17.35-46.58-43.83-82.2-79.45-106.86-35.62-24.66-77.19-37.44-124.66-38.36-52.06,0-95.69,12.57-130.84,37.67-35.16,25.13-61.88,60.96-80.14,107.55L126.71,890.43c-11.88,30.14-15.31,60.75-10.28,91.79,5.01,31.06,16.88,58.9,35.61,83.56,18.71,24.67,43.15,42.94,73.29,54.8l43.84,16.43c6.38,1.82,10.49.46,12.33-4.11,1.82-5.48,0-9.12-5.48-10.96l-43.83-16.43c-27.41-10.04-49.79-26.25-67.13-48.64-17.35-22.37-28.32-47.72-32.88-76.03-4.58-28.3-1.37-56.62,9.6-84.93L410.29,209.56c17.34-42.91,41.99-76.02,73.98-99.32,31.95-23.29,72.6-34.93,121.93-34.93,44.72.92,83.32,12.8,115.76,35.62,32.41,22.84,56.84,55.71,73.28,98.63l69.58,179.2c3.27-7.23,6.38-14.12,9.25-20.47l-63.75-164.2Z"/>
  <path class="cls-3" d="M1076.07,893.17c-7.32-22.82-14.16-41.99-20.55-57.54l-67.43-173.66-9.08.16-8,.14-117.79-7.91c-49.36-1.92-106.86,41.93-129.14,84.58-22.28,42.65-67.32,143.08-67.32,143.08-4.08,7.53-7.64,14.2-10.24,19.3l47.34,115.14c18.27,45.68,43.16,77.64,74.66,95.9,31.51,18.26,64.16,27.84,97.96,28.77,33.78,0,67.34-5.96,100.69-17.81,33.33-11.86,61.17-30.59,83.56-56.17,22.37-25.56,34.02-57.99,34.93-97.26.91-28.3-2.29-53.88-9.59-76.72Z"/>
  <path class="cls-1" d="M656.76,882.02c16.08-29.68,40.05-72.34,44.01-81.3,25.99-58.84,77.31-136.6,168.49-136.6l101.74-1.84,17.08-.31-6.28-16.18-17.64-1.14c-44.54-2.88-80.8-5.2-97.54-6.21-64.68-3.9-77.39-44.56-64.69-82.18,3.47-10.29,8.08-22.67,13.98-36,3.95-8.91,30.76-73.08,51.89-123.75l8.9-21.35-2.66-6.86-9.25,20.47c-22.5,49.79-52.24,115.38-57.81,126.71-27.73,56.34-77.87,122.12-161.74,122.12l-369.52,7.24s-7.83-.65-7.83,6.09,6.33,5.96,6.33,5.96l366.47,8.86c58.27,0,77.39,44.56,64.69,82.18-4.38,12.96-10.54,29.23-18.84,46.55-1.97,4.11-25.48,52.45-40.12,82.26l-8.11,16.43s4.25-.26,5.18.79,3.01,7.36,3.01,7.36c0,0,8.73-16.5,10.24-19.3Z"/>
</svg>