<?xml version="1.0" encoding="UTF-8"?>
<svg id="Layer_1" xmlns="http://www.w3.org/2000/svg" viewBox="0 0 1200 400">
  <defs>
    <style>
      .cls-1 {
        fill: #fff;
      }

      .cls-2 {
        fill: #542fb3;
      }

      .cls-3 {
        fill: #2f4cb3;
      }
    </style>
  </defs>
  <g>
    <path class="cls-3" d="M129.25,241.53c-.69,0-1.03.41-1.03,1.24s.34,1.24,1.03,1.24h12.28c.31-.62.73-1.48,1.22-2.48h-13.51Z"/>
    <path class="cls-2" d="M177.48,165.9c-.42,1.01-.87,2.09-1.34,3.22l-10.98,24.36c-.87,4.55-.83,7.59.69,9.68,1.52,2.1,5.2,3.07,9.36,3.36,4.15.29,15.46.02,15.46.02.46.03.92.06,1.39.09.42.03.84.05,1.27.08l-15.84-40.81Z"/>
    <path class="cls-3" d="M167.47,140.1c-2.62-7.02-6.61-12.39-11.98-16.11-5.37-3.72-11.64-5.65-18.8-5.78-7.85,0-14.43,1.9-19.73,5.68-5.3,3.79-9.33,9.19-12.08,16.22l-40.49,103.49c-1.79,4.54-2.31,9.16-1.55,13.84.76,4.68,2.55,8.88,5.37,12.6,2.82,3.72,6.51,6.47,11.05,8.26l6.61,2.48c.96.27,1.58.07,1.86-.62.27-.83,0-1.38-.83-1.65l-6.61-2.48c-4.13-1.51-7.51-3.96-10.12-7.33-2.62-3.37-4.27-7.19-4.96-11.46-.69-4.27-.21-8.54,1.45-12.81l40.49-103.49c2.61-6.47,6.33-11.46,11.15-14.97,4.82-3.51,10.95-5.27,18.38-5.27,6.74.14,12.56,1.93,17.45,5.37,4.89,3.44,8.57,8.4,11.05,14.87l10.49,27.02c.49-1.09.96-2.13,1.39-3.09l-9.61-24.76Z"/>
    <path class="cls-3" d="M207.54,244c-1.1-3.44-2.13-6.33-3.1-8.68l-10.17-26.19-1.37.02-1.21.02-17.76-1.19c-7.44-.29-16.11,6.32-19.47,12.75-3.36,6.43-10.15,21.57-10.15,21.57-.61,1.13-1.15,2.14-1.54,2.91l7.14,17.36c2.75,6.89,6.51,11.71,11.26,14.46,4.75,2.75,9.67,4.2,14.77,4.34,5.09,0,10.15-.9,15.18-2.69,5.03-1.79,9.22-4.61,12.6-8.47,3.37-3.85,5.13-8.74,5.27-14.67.14-4.27-.34-8.12-1.45-11.57Z"/>
    <path class="cls-1" d="M144.32,242.32c2.42-4.47,6.04-10.91,6.64-12.26,3.92-8.87,11.66-20.6,25.41-20.6l15.34-.28,2.57-.05-.95-2.44-2.66-.17c-6.72-.43-12.18-.78-14.71-.94-9.75-.59-11.67-6.72-9.75-12.39.52-1.55,1.22-3.42,2.11-5.43.6-1.34,4.64-11.02,7.82-18.66l1.34-3.22-.4-1.03-1.39,3.09c-3.39,7.51-7.88,17.4-8.72,19.11-4.18,8.49-11.74,18.41-24.39,18.41l-55.72,1.09s-1.18-.1-1.18.92.95.9.95.9l55.26,1.34c8.79,0,11.67,6.72,9.75,12.39-.66,1.95-1.59,4.41-2.84,7.02-.3.62-3.84,7.91-6.05,12.4l-1.22,2.48s.64-.04.78.12.45,1.11.45,1.11c0,0,1.32-2.49,1.54-2.91Z"/>
  </g>
  <g>
    <path class="cls-3" d="M311.62,226.43c-2.89-3.17-6.71-5.92-11.46-8.26-4.75-2.34-10.22-4.41-16.42-6.2-5.78-1.65-10.16-2.96-13.12-3.92-2.96-.96-5.06-1.72-6.3-2.27-1.52-.69-2.62-1.51-3.3-2.48-.69-.96-1.03-1.99-1.03-3.1,0-.83.17-1.55.52-2.17.34-.62.86-1.17,1.55-1.65.69-.48,1.55-.83,2.58-1.03,1.03-.21,2.3-.31,3.82-.31,2.89,0,6.02.59,9.4,1.76,3.37,1.17,6.61,2.65,9.71,4.44,3.1,1.79,5.82,3.65,8.16,5.58l21.28-23.76c-4.27-3.3-8.99-6.16-14.15-8.57-5.16-2.41-10.67-4.27-16.52-5.58-5.85-1.31-12.15-1.96-18.9-1.96-5.92,0-11.71.83-17.35,2.48-5.65,1.65-10.74,4.03-15.29,7.13-4.54,3.1-8.13,6.85-10.74,11.26-2.62,4.41-3.92,9.43-3.92,15.08,0,4.82.93,9.16,2.79,13.01,1.86,3.86,4.44,7.3,7.75,10.33,3.17,2.76,6.99,5.16,11.46,7.23,4.47,2.07,9.4,3.79,14.77,5.16,4.54,1.1,8.23,2.06,11.05,2.89,2.82.83,4.85,1.52,6.09,2.07,2.2.97,3.3,2.48,3.3,4.54,0,.83-.17,1.52-.52,2.07-.35.55-.83,1.07-1.45,1.55-.62.48-1.45.83-2.48,1.03-1.03.21-2.24.31-3.61.31-3.86,0-8.64-.93-14.36-2.79-5.72-1.86-10.78-4.71-15.18-8.57l-24.37,20.86c4.96,5.51,11.88,10.09,20.76,13.74,8.88,3.65,19.31,5.47,31.29,5.47,9.78,0,18.45-1.69,26.03-5.06,7.57-3.37,13.53-7.98,17.87-13.84,4.34-5.85,6.51-12.57,6.51-20.14,0-3.17-.55-6.12-1.65-8.88-1.1-2.75-2.62-5.23-4.54-7.44Z"/>
    <polygon class="cls-3" points="382.05 141.33 340.12 141.33 340.12 169.22 322.98 169.22 322.98 204.33 340.12 204.33 340.12 279.73 382.05 279.73 382.05 204.33 400.23 204.33 400.23 169.22 382.05 169.22 382.05 141.33"/>
    <path class="cls-3" d="M490.7,166.94c-6.2,0-12.02,1.45-17.45,4.34-5.44,2.89-10.09,6.85-13.94,11.88-.22.29-.43.6-.65.89l-1-14.84h-38.83v110.51h41.93v-51.23c0-2.75.34-5.16,1.03-7.23.69-2.07,1.68-3.85,3-5.37,1.31-1.51,2.96-2.65,4.96-3.41,1.99-.76,4.23-1.14,6.71-1.14,3.44,0,6.64.41,9.61,1.24,2.96.83,5.13,1.72,6.51,2.69l11.57-46.48c-2.07-.55-4.2-1-6.4-1.34-2.2-.34-4.54-.52-7.02-.52Z"/>
    <path class="cls-3" d="M601.94,174.38c-9.3-4.96-19.93-7.44-31.91-7.44s-22.65,2.48-32.02,7.44c-9.37,4.96-16.73,11.74-22.1,20.35-5.37,8.61-8.06,18.49-8.06,29.64s2.69,21.04,8.06,29.64c5.37,8.61,12.74,15.39,22.1,20.35,9.36,4.96,20.04,7.44,32.02,7.44s22.62-2.48,31.91-7.44c9.3-4.96,16.59-11.74,21.9-20.35,5.3-8.6,7.95-18.49,7.95-29.64s-2.65-21.03-7.95-29.64c-5.3-8.6-12.6-15.39-21.9-20.35ZM586.96,235.83c-1.65,3.38-3.96,6.03-6.92,7.95-2.96,1.93-6.3,2.89-10.02,2.89s-7.27-.96-10.23-2.89c-2.96-1.93-5.3-4.58-7.02-7.95-1.72-3.37-2.58-7.19-2.58-11.46s.86-8.3,2.58-11.67c1.72-3.37,4.06-6.02,7.02-7.95,2.96-1.93,6.37-2.89,10.23-2.89s7.06.97,10.02,2.89c2.96,1.93,5.27,4.58,6.92,7.95,1.65,3.38,2.48,7.27,2.48,11.67s-.83,8.09-2.48,11.46Z"/>
    <rect class="cls-3" x="729.49" y="126.87" width="41.93" height="152.86"/>
    <path class="cls-3" d="M697.37,164.26c1.31-.83,3.06-1.24,5.27-1.24.96,0,2.13.1,3.51.31,1.38.21,2.96.52,4.75.93l10.95-29.95c-4.27-2.61-8.82-4.68-13.63-6.2-4.82-1.51-10.05-2.27-15.7-2.27-8.26,0-15.46,1.96-21.59,5.89-6.13,3.92-10.88,9.12-14.25,15.6-3.38,6.47-5.06,13.63-5.06,21.48v4.34h-15.08v33.05h15.08v73.54h41.93v-73.54h20.24v-33.05h-20.22c.05-2.06.35-3.83.91-5.27.62-1.58,1.58-2.79,2.89-3.61Z"/>
    <path class="cls-3" d="M868.51,180.29c-1.75-2-3.67-3.84-5.78-5.5-3.17-2.48-6.82-4.41-10.95-5.78-4.13-1.37-8.68-2.06-13.63-2.06-9.5,0-17.87,2.45-25.1,7.33-7.23,4.89-12.88,11.64-16.94,20.24-4.06,8.61-6.09,18.56-6.09,29.85s2.07,21.04,6.2,29.64c4.13,8.61,9.78,15.36,16.94,20.24,7.16,4.89,15.35,7.33,24.58,7.33,4.96,0,9.5-.72,13.63-2.17s7.85-3.41,11.15-5.89c1.79-1.34,3.43-2.83,4.96-4.46v10.65h42.14v-110.51h-41.11v11.08ZM866.34,236.97c-1.45,3.44-3.58,6.06-6.4,7.85-2.82,1.79-6.23,2.69-10.23,2.69s-7.37-.89-10.12-2.69c-2.76-1.79-4.85-4.41-6.3-7.85-1.45-3.44-2.17-7.64-2.17-12.6s.72-9.19,2.17-12.7c1.45-3.51,3.54-6.16,6.3-7.95,2.75-1.79,6.13-2.69,10.12-2.69s7.4.9,10.23,2.69c2.82,1.79,4.96,4.44,6.4,7.95,1.45,3.51,2.17,7.75,2.17,12.7s-.72,9.16-2.17,12.6Z"/>
    <path class="cls-3" d="M1010.41,166.94c-6.2,0-12.02,1.45-17.46,4.34-5.44,2.89-10.09,6.85-13.94,11.88-.22.29-.43.6-.65.89l-1-14.84h-38.83v110.51h41.93v-51.23c0-2.75.34-5.16,1.03-7.23.69-2.07,1.68-3.85,2.99-5.37,1.31-1.51,2.96-2.65,4.96-3.41,1.99-.76,4.23-1.14,6.71-1.14,3.44,0,6.64.41,9.6,1.24,2.96.83,5.13,1.72,6.51,2.69l11.57-46.48c-2.07-.55-4.2-1-6.4-1.34-2.2-.34-4.54-.52-7.02-.52Z"/>
    <path class="cls-3" d="M1134.04,201.44c-2.55-7.02-6.23-13.12-11.05-18.28-4.82-5.16-10.57-9.16-17.25-11.98-6.68-2.82-14.08-4.23-22.21-4.23s-15.6,1.41-22.41,4.23c-6.82,2.82-12.74,6.82-17.76,11.98-5.03,5.16-8.92,11.26-11.67,18.28-2.76,7.02-4.13,14.67-4.13,22.93,0,11.15,2.48,21.04,7.44,29.64,4.96,8.61,12.05,15.39,21.28,20.35,9.22,4.96,20.24,7.44,33.05,7.44,4.96,0,9.81-.48,14.56-1.45s9.57-2.55,14.46-4.75c4.89-2.2,9.88-5.3,14.98-9.29l-19.21-27.06c-3.31,2.34-6.44,4.03-9.4,5.06-2.96,1.03-6.51,1.55-10.64,1.55-6.2,0-11.4-1.03-15.6-3.1-4.2-2.07-7.37-4.96-9.5-8.68-.19-.34-.37-.69-.55-1.03h68.81l.21-8.68c.27-8.26-.86-15.91-3.41-22.93ZM1074.24,203.09c2.75-1.65,6.12-2.48,10.12-2.48,3.17,0,5.92.55,8.26,1.65,2.34,1.1,4.16,2.65,5.47,4.65,1.24,1.89,1.87,4.07,1.94,6.51h-33.28c.32-1.16.7-2.28,1.19-3.3,1.45-3.03,3.54-5.37,6.3-7.02Z"/>
  </g>
</svg>