<?xml version="1.0" encoding="UTF-8"?>
<svg id="Layer_1" xmlns="http://www.w3.org/2000/svg" viewBox="0 0 1200 1200">
  <defs>
    <style>
      .cls-1 {
        fill: #fff;
      }

      .cls-2 {
        fill: #542fb3;
      }

      .cls-3 {
        fill: #2f4cb3;
      }
    </style>
  </defs>
  <g>
    <path class="cls-3" d="M565.99,708.49c-3.6,0-5.39,2.15-5.39,6.48s1.79,6.48,5.39,6.48h64.23c1.61-3.24,3.82-7.73,6.39-12.96h-70.62Z"/>
    <path class="cls-2" d="M818.17,313.04c-2.2,5.27-4.56,10.93-7.02,16.83l-57.41,127.37c-4.53,23.8-4.34,39.67,3.59,50.62,7.93,10.96,27.2,16.06,48.92,17.57,21.72,1.51,80.86.08,80.86.08,2.4.16,4.82.31,7.27.47,2.18.14,4.41.29,6.63.43l-82.85-213.37Z"/>
    <path class="cls-3" d="M765.81,178.17c-13.68-36.73-34.56-64.81-62.64-84.25-28.08-19.44-60.85-29.52-98.28-30.24-41.05,0-75.44,9.91-103.15,29.7-27.72,19.81-48.79,48.06-63.18,84.79l-211.69,541.11c-9.37,23.76-12.07,47.9-8.1,72.37,3.95,24.49,13.31,46.44,28.08,65.88,14.75,19.45,34.02,33.85,57.78,43.21l34.57,12.96c5.03,1.44,8.27.36,9.72-3.24,1.44-4.32,0-7.19-4.32-8.64l-34.56-12.96c-21.61-7.92-39.25-20.69-52.93-38.34-13.68-17.64-22.33-37.62-25.92-59.95-3.61-22.31-1.08-44.64,7.57-66.96L450.43,182.49c13.67-33.83,33.11-59.94,58.33-78.3,25.19-18.36,57.23-27.54,96.13-27.54,35.26.73,65.69,10.09,91.27,28.08,25.55,18,44.81,43.93,57.78,77.76l54.85,141.28c2.58-5.7,5.03-11.13,7.29-16.14l-50.26-129.45Z"/>
    <path class="cls-3" d="M975.34,721.44c-5.77-17.99-11.16-33.11-16.2-45.36l-53.16-136.92-7.16.13-6.31.11-92.87-6.24c-38.91-1.51-84.25,33.06-101.81,66.68-17.57,33.62-53.08,112.8-53.08,112.8-3.21,5.93-6.02,11.2-8.07,15.21l37.32,90.78c14.4,36.02,34.03,61.21,58.86,75.61,24.85,14.39,50.58,21.95,77.23,22.68,26.63,0,53.09-4.69,79.38-14.04,26.28-9.35,48.23-24.12,65.88-44.28,17.64-20.15,26.82-45.72,27.54-76.68.72-22.31-1.8-42.48-7.56-60.49Z"/>
    <path class="cls-1" d="M644.75,712.66c12.67-23.4,31.58-57.03,34.7-64.1,20.49-46.39,60.95-107.7,132.84-107.7l80.22-1.45,13.46-.24-4.95-12.76-13.91-.9c-35.12-2.27-63.7-4.1-76.9-4.9-50.99-3.08-61.01-35.13-51-64.79,2.74-8.11,6.37-17.87,11.02-28.38,3.11-7.03,24.25-57.61,40.91-97.57l7.02-16.83-2.1-5.41-7.29,16.14c-17.74,39.26-41.18,90.97-45.58,99.9-21.86,44.42-61.4,96.28-127.52,96.28l-291.33,5.71s-6.17-.51-6.17,4.8,4.99,4.7,4.99,4.7l288.93,6.99c45.94,0,61.01,35.13,51,64.79-3.45,10.22-8.31,23.04-14.86,36.7-1.55,3.24-20.09,41.35-31.63,64.85l-6.39,12.96s3.35-.21,4.08.62,2.38,5.8,2.38,5.8c0,0,6.88-13.01,8.07-15.21Z"/>
  </g>
  <g>
    <g>
      <path class="cls-3" d="M127,1097.33c-.69,0-1.04.41-1.04,1.24s.34,1.25,1.04,1.25h12.34c.31-.62.73-1.49,1.23-2.49h-13.57Z"/>
      <path class="cls-2" d="M175.46,1021.34c-.42,1.01-.88,2.1-1.35,3.24l-11.03,24.48c-.87,4.57-.83,7.62.69,9.73,1.52,2.11,5.23,3.09,9.4,3.38,4.17.29,15.54.02,15.54.02.46.03.93.06,1.4.09.42.03.85.05,1.27.08l-15.92-41Z"/>
      <path class="cls-3" d="M165.39,995.42c-2.63-7.06-6.64-12.45-12.04-16.19-5.4-3.74-11.69-5.67-18.89-5.81-7.89,0-14.5,1.9-19.82,5.71-5.33,3.81-9.38,9.24-12.14,16.29l-40.68,103.98c-1.8,4.57-2.32,9.2-1.56,13.91.76,4.71,2.56,8.92,5.4,12.66,2.83,3.74,6.54,6.51,11.1,8.3l6.64,2.49c.97.28,1.59.07,1.87-.62.28-.83,0-1.38-.83-1.66l-6.64-2.49c-4.15-1.52-7.54-3.98-10.17-7.37-2.63-3.39-4.29-7.23-4.98-11.52-.69-4.29-.21-8.58,1.45-12.87l40.68-103.98c2.63-6.5,6.36-11.52,11.21-15.05,4.84-3.53,11-5.29,18.47-5.29,6.78.14,12.62,1.94,17.54,5.4,4.91,3.46,8.61,8.44,11.1,14.94l10.54,27.15c.5-1.1.97-2.14,1.4-3.1l-9.66-24.88Z"/>
      <path class="cls-3" d="M205.66,1099.82c-1.11-3.46-2.15-6.36-3.11-8.72l-10.22-26.31-1.38.02-1.21.02-17.85-1.2c-7.48-.29-16.19,6.35-19.57,12.81-3.38,6.46-10.2,21.68-10.2,21.68-.62,1.14-1.16,2.15-1.55,2.92l7.17,17.44c2.77,6.92,6.54,11.76,11.31,14.53,4.77,2.77,9.72,4.22,14.84,4.36,5.12,0,10.2-.9,15.26-2.7,5.05-1.8,9.27-4.63,12.66-8.51,3.39-3.87,5.15-8.79,5.29-14.74.14-4.29-.35-8.16-1.45-11.62Z"/>
      <path class="cls-1" d="M142.13,1098.13c2.44-4.5,6.07-10.96,6.67-12.32,3.94-8.91,11.71-20.7,25.53-20.7l15.41-.28,2.59-.05-.95-2.45-2.67-.17c-6.75-.44-12.24-.79-14.78-.94-9.8-.59-11.72-6.75-9.8-12.45.53-1.56,1.22-3.43,2.12-5.45.6-1.35,4.66-11.07,7.86-18.75l1.35-3.24-.4-1.04-1.4,3.1c-3.41,7.54-7.91,17.48-8.76,19.2-4.2,8.54-11.8,18.5-24.5,18.5l-55.98,1.1s-1.19-.1-1.19.92.96.9.96.9l55.52,1.34c8.83,0,11.72,6.75,9.8,12.45-.66,1.96-1.6,4.43-2.85,7.05-.3.62-3.86,7.95-6.08,12.46l-1.23,2.49s.64-.04.78.12.46,1.12.46,1.12c0,0,1.32-2.5,1.55-2.92Z"/>
    </g>
    <g>
      <path class="cls-3" d="M310.23,1082.17c-2.91-3.18-6.75-5.95-11.52-8.3-4.77-2.35-10.27-4.43-16.5-6.23-5.81-1.66-10.21-2.97-13.18-3.94-2.98-.97-5.09-1.73-6.33-2.28-1.52-.69-2.63-1.52-3.32-2.49-.69-.97-1.04-2-1.04-3.11,0-.83.17-1.56.52-2.18.34-.62.86-1.17,1.56-1.66.69-.48,1.56-.83,2.59-1.04,1.04-.21,2.32-.31,3.84-.31,2.91,0,6.05.59,9.44,1.76,3.39,1.18,6.64,2.67,9.76,4.46,3.11,1.8,5.84,3.67,8.2,5.6l21.38-23.87c-4.29-3.32-9.03-6.19-14.22-8.61-5.19-2.42-10.72-4.29-16.6-5.6-5.88-1.31-12.21-1.97-18.99-1.97-5.95,0-11.76.83-17.43,2.49-5.67,1.66-10.79,4.05-15.36,7.16-4.57,3.11-8.17,6.88-10.79,11.31-2.63,4.43-3.94,9.48-3.94,15.15,0,4.85.93,9.2,2.8,13.08,1.87,3.88,4.46,7.34,7.78,10.38,3.18,2.77,7.02,5.19,11.52,7.26,4.49,2.08,9.44,3.81,14.84,5.19,4.57,1.11,8.27,2.07,11.1,2.91,2.83.83,4.88,1.52,6.12,2.08,2.21.97,3.32,2.49,3.32,4.57,0,.83-.18,1.52-.52,2.08-.35.55-.83,1.07-1.45,1.56-.62.49-1.45.83-2.49,1.04-1.04.21-2.25.31-3.63.31-3.88,0-8.68-.93-14.42-2.8-5.74-1.87-10.83-4.74-15.26-8.61l-24.49,20.96c4.98,5.54,11.93,10.14,20.86,13.8,8.92,3.66,19.41,5.5,31.44,5.5,9.82,0,18.54-1.7,26.15-5.09,7.61-3.39,13.59-8.02,17.95-13.91,4.36-5.88,6.54-12.63,6.54-20.24,0-3.18-.55-6.15-1.66-8.92-1.11-2.77-2.63-5.26-4.57-7.47Z"/>
      <polygon class="cls-3" points="381.01 996.66 338.87 996.66 338.87 1024.68 321.65 1024.68 321.65 1059.96 338.87 1059.96 338.87 1135.72 381.01 1135.72 381.01 1059.96 399.27 1059.96 399.27 1024.68 381.01 1024.68 381.01 996.66"/>
      <path class="cls-3" d="M490.18,1022.39c-6.23,0-12.07,1.45-17.54,4.36-5.47,2.91-10.14,6.88-14.01,11.93-.23.29-.44.6-.66.9l-1-14.91h-39.02v111.04h42.13v-51.47c0-2.77.34-5.19,1.04-7.26.69-2.08,1.69-3.87,3.01-5.4,1.31-1.52,2.97-2.66,4.98-3.42,2-.76,4.25-1.14,6.75-1.14,3.46,0,6.67.42,9.65,1.25,2.97.83,5.15,1.73,6.54,2.7l11.62-46.7c-2.08-.55-4.22-1-6.43-1.35-2.21-.34-4.57-.52-7.06-.52Z"/>
      <path class="cls-3" d="M601.95,1029.87c-9.34-4.98-20.03-7.47-32.07-7.47s-22.76,2.49-32.17,7.47c-9.41,4.98-16.81,11.8-22.21,20.44-5.4,8.65-8.1,18.58-8.1,29.78s2.7,21.14,8.1,29.78c5.4,8.65,12.8,15.46,22.21,20.44,9.41,4.98,20.13,7.47,32.17,7.47s22.73-2.49,32.07-7.47,16.67-11.8,22-20.44c5.33-8.65,7.99-18.58,7.99-29.78s-2.67-21.14-7.99-29.78c-5.33-8.65-12.66-15.46-22-20.44ZM586.9,1091.61c-1.66,3.39-3.98,6.06-6.95,7.99-2.98,1.94-6.33,2.91-10.07,2.91s-7.3-.97-10.27-2.91c-2.98-1.94-5.33-4.6-7.06-7.99-1.73-3.39-2.59-7.23-2.59-11.52s.86-8.34,2.59-11.73c1.73-3.39,4.08-6.05,7.06-7.99,2.97-1.94,6.4-2.91,10.27-2.91s7.09.97,10.07,2.91c2.97,1.94,5.29,4.6,6.95,7.99,1.66,3.39,2.49,7.3,2.49,11.73s-.83,8.13-2.49,11.52Z"/>
      <rect class="cls-3" x="730.11" y="982.13" width="42.13" height="153.59"/>
      <path class="cls-3" d="M697.84,1019.7c1.31-.83,3.08-1.25,5.29-1.25.97,0,2.14.1,3.53.31,1.38.21,2.97.52,4.77.93l11-30.1c-4.29-2.63-8.86-4.7-13.7-6.23-4.85-1.52-10.1-2.28-15.77-2.28-8.3,0-15.53,1.97-21.69,5.92-6.16,3.94-10.93,9.17-14.32,15.67-3.39,6.51-5.09,13.7-5.09,21.59v4.36h-15.15v33.21h15.15v73.89h42.13v-73.89h20.34v-33.21h-20.32c.05-2.07.35-3.85.91-5.29.62-1.59,1.59-2.8,2.91-3.63Z"/>
      <path class="cls-3" d="M869.8,1035.81c-1.76-2.01-3.68-3.86-5.81-5.53-3.19-2.49-6.85-4.43-11-5.81-4.15-1.38-8.72-2.07-13.7-2.07-9.55,0-17.95,2.46-25.22,7.37-7.26,4.91-12.94,11.69-17.02,20.34-4.08,8.65-6.12,18.65-6.12,29.99s2.08,21.14,6.23,29.78c4.15,8.65,9.82,15.43,17.02,20.34,7.19,4.91,15.43,7.37,24.7,7.37,4.98,0,9.55-.73,13.7-2.18,4.15-1.45,7.89-3.42,11.21-5.92,1.8-1.35,3.45-2.85,4.98-4.48v10.71h42.34v-111.04h-41.3v11.13ZM867.62,1092.75c-1.45,3.46-3.6,6.09-6.43,7.89-2.84,1.8-6.26,2.7-10.27,2.7s-7.4-.9-10.17-2.7c-2.77-1.8-4.88-4.43-6.33-7.89-1.45-3.46-2.18-7.68-2.18-12.66s.73-9.24,2.18-12.77c1.45-3.53,3.56-6.19,6.33-7.99,2.77-1.8,6.16-2.7,10.17-2.7s7.44.9,10.27,2.7c2.83,1.8,4.98,4.46,6.43,7.99,1.45,3.53,2.18,7.78,2.18,12.77s-.73,9.2-2.18,12.66Z"/>
      <path class="cls-3" d="M1012.38,1022.39c-6.23,0-12.07,1.45-17.54,4.36-5.47,2.91-10.14,6.88-14.01,11.93-.23.29-.44.6-.66.9l-1.01-14.91h-39.02v111.04h42.13v-51.47c0-2.77.34-5.19,1.04-7.26.69-2.08,1.69-3.87,3.01-5.4,1.31-1.52,2.97-2.66,4.98-3.42,2-.76,4.25-1.14,6.75-1.14,3.46,0,6.67.42,9.65,1.25,2.97.83,5.15,1.73,6.54,2.7l11.62-46.7c-2.08-.55-4.22-1-6.43-1.35-2.21-.34-4.57-.52-7.06-.52Z"/>
      <path class="cls-3" d="M1136.61,1057.06c-2.56-7.06-6.26-13.18-11.11-18.37-4.84-5.19-10.62-9.2-17.33-12.04-6.71-2.83-14.15-4.25-22.31-4.25s-15.67,1.42-22.52,4.25c-6.85,2.84-12.8,6.85-17.85,12.04-5.05,5.19-8.96,11.31-11.73,18.37-2.77,7.06-4.15,14.74-4.15,23.04,0,11.21,2.49,21.14,7.47,29.78,4.98,8.65,12.11,15.46,21.38,20.44,9.27,4.98,20.34,7.47,33.21,7.47,4.98,0,9.86-.49,14.63-1.45s9.62-2.56,14.53-4.77c4.91-2.21,9.93-5.32,15.05-9.34l-19.3-27.19c-3.32,2.35-6.47,4.05-9.44,5.09-2.98,1.04-6.54,1.56-10.69,1.56-6.23,0-11.45-1.04-15.67-3.11-4.22-2.08-7.4-4.98-9.55-8.72-.19-.34-.37-.69-.55-1.04h69.14l.21-8.72c.27-8.3-.87-15.98-3.42-23.04ZM1076.52,1058.72c2.77-1.66,6.15-2.49,10.17-2.49,3.18,0,5.95.55,8.3,1.66,2.35,1.11,4.18,2.67,5.5,4.67,1.24,1.9,1.88,4.09,1.94,6.54h-33.44c.32-1.17.7-2.29,1.19-3.32,1.45-3.04,3.56-5.4,6.33-7.06Z"/>
    </g>
  </g>
</svg>